<svg xmlns="http://www.w3.org/2000/svg" xmlns:xlink="http://www.w3.org/1999/xlink" width="750" height="624" version="1.1" viewBox="0 0 750 624"><title>custom-element-drivers</title><desc>Created with Sketch.</desc><g id="Page-1" fill="none" fill-rule="evenodd" stroke="none" stroke-width="1"><g id="custom-element-drivers"><path id="Line" stroke="#727481" stroke-linecap="square" stroke-width="3" d="M88.5,193.5 L758.5,193.5"/><g id="computer" transform="translate(215.000000, 27.000000)"><rect id="Rectangle-1" width="318" height="91" x="0" y="0" fill="#58D3D8" fill-opacity=".495" stroke="#409B9E" stroke-width="4"/><text id="customElem()" fill="#409B9E" font-family="Source Sans Pro" font-size="50" font-weight="normal"><tspan x="15" y="60.95">customElem()</tspan></text></g><text id="app-side" fill="#727481" font-family="Source Sans Pro" font-size="24" font-weight="normal"><tspan x="332" y="180">app side</tspan></text><text id="(READ-ONLY)" fill="#67AB83" font-family="Source Sans Pro" font-size="24" font-weight="normal"><tspan x="405" y="260">(READ-ONLY)</tspan></text><text id="(WRITE-ONLY)" fill="#67AB83" font-family="Source Sans Pro" font-size="24" font-weight="normal"><tspan x="215" y="612">(WRITE-ONLY)</tspan></text><text id="Cycle.js" fill="#727481" font-family="Merriweather" font-size="20" font-weight="bold"><tspan x="2" y="199">Cycle.js</tspan></text><text id="Sink-Observables" fill="#409B9E" font-family="Source Sans Pro" font-size="24" font-weight="normal"><tspan x="97.064" y="43">Sink</tspan> <tspan x="54.584" y="74">Observables</tspan></text><text id="Source-Observables" fill="#67AB83" font-family="Source Sans Pro" font-size="24" font-weight="normal"><tspan x="581" y="43">Source</tspan> <tspan x="581" y="74">Observables</tspan></text><text id="framework-side" fill="#727481" font-family="Source Sans Pro" font-size="24" font-weight="normal"><tspan x="300" y="220">framework side</tspan></text><g id="human" transform="translate(215.000000, 268.000000)"><rect id="Rectangle-1-Copy" width="318" height="91" x="0" y=".5" fill="#8FE8B4" fill-opacity=".498" stroke="#67AB83" stroke-width="4"/><text id="props" fill="#67AB83" font-family="Source Sans Pro" font-size="50" font-weight="normal"><tspan x="98.5" y="60.45">props</tspan></text></g><g id="human-copy" transform="translate(215.000000, 383.000000)"><rect id="Rectangle-1-Copy" width="318" height="91" x="0" y=".5" fill="#8FE8B4" fill-opacity=".498" stroke="#67AB83" stroke-width="4"/><text id="DOM" fill="#67AB83" font-family="Source Sans Pro" font-size="50" font-weight="normal"><tspan x="108.5" y="62.45">DOM</tspan></text></g><g id="human-copy-2" transform="translate(215.000000, 498.000000)"><rect id="Rectangle-1-Copy" width="318" height="91" x="0" y=".5" fill="#8FE8B4" fill-opacity=".498" stroke="#67AB83" stroke-width="4"/><text id="events" fill="#67AB83" font-family="Source Sans Pro" font-size="50" font-weight="normal"><tspan x="89.5" y="61.45">events</tspan></text></g><g id="Path-3-+-Path-3-Copy-2" stroke="#409B9E" stroke-width="5" transform="translate(116.000000, 73.000000)"><path id="Path-3" d="M85.4911761,0.914027218 C-30.3641007,44.3700386 -25.7845531,317.866582 85.4782532,356.92384"/><path id="Path-3-Copy-3" d="M67.8175022,364.763529 L80.3538325,347.211818 L93.0088885,364.788182" transform="translate(80.413195, 356.000000) rotate(107.000000) translate(-80.413195, -356.000000)"/></g><g id="Path-3-+-Path-3-Copy-4" stroke="#409B9E" stroke-width="5" transform="translate(110.000000, 74.000000)"><path id="Path-3" d="M91.4911761,0.211448773 C-40.5865293,43.188099 -19.7845531,420.299359 91.4782532,472.065725"/><path id="Path-3-Copy-4" d="M73.8175022,477.763529 L86.3538325,460.211818 L99.0088885,477.788182" transform="translate(86.413195, 469.000000) rotate(107.000000) translate(-86.413195, -469.000000)"/></g><g id="Path-3-+-Path-3-Copy-3" stroke="#67AB83" stroke-width="5" transform="translate(585.500000, 184.500000) rotate(-180.000000) translate(-585.500000, -184.500000) translate(539.000000, 57.000000)"><path id="Path-3" d="M85.4911761,0.616605663 C-30.3641007,29.9321689 -25.7845531,214.433805 85.4782532,240.781956"/><path id="Path-3-Copy-2" d="M67.3235408,248.289129 L79.8598711,230.737418 L92.5149271,248.313782" transform="translate(79.919234, 239.525600) rotate(107.000000) translate(-79.919234, -239.525600)"/></g><g id="Path-3-+-Path-3-Copy-5" stroke="#67AB83" stroke-width="5" transform="translate(593.000000, 251.000000) rotate(-180.000000) translate(-593.000000, -251.000000) translate(546.000000, 71.000000)"><path id="Path-3" d="M93.4911761,-2.84217094e-14 C-22.3641007,43.9164545 -38.505074,332.41803 93.4782532,359.781956"/></g></g></g></svg>