<svg xmlns="http://www.w3.org/2000/svg" xmlns:xlink="http://www.w3.org/1999/xlink" version="1.1" viewBox="0 0 750 390"><title>human-computer-diagram2</title><desc>Created with Sketch.</desc><g id="Page-1" fill="none" fill-rule="evenodd" stroke="none" stroke-width="1"><g id="human-computer-diagram2"><path id="Line" stroke="#727481" stroke-linecap="square" stroke-width="3" d="M81.5,193.5 L758.5,193.5"/><g id="computer" transform="translate(215.000000, 27.000000)"><rect id="Rectangle-1" width="318" height="91" x="0" y="0" fill="#58D3D8" fill-opacity=".495" stroke="#409B9E" stroke-width="4"/><text id="computer()" fill="#409B9E" font-family="Source Sans Pro" font-size="50" font-weight="normal"><tspan x="43" y="59.5">computer()</tspan></text></g><text id="app-side" fill="#727481" font-family="Source Sans Pro" font-size="24" font-weight="normal"><tspan x="332" y="180">app side</tspan></text><text id="a-function" fill="#727481" font-family="Source Sans Pro" font-size="24" font-weight="normal"><tspan x="246" y="20">a function</tspan></text><text id="Cycle.js" fill="#727481" font-family="Merriweather" font-size="20" font-weight="bold"><tspan x="2" y="199">Cycle.js</tspan></text><text id="Sink-Observables" fill="#409B9E" font-family="Source Sans Pro" font-size="24" font-weight="normal"><tspan x="146" y="149">Sink</tspan> <tspan x="146" y="180">Streams</tspan></text><text id="Source-Observables" fill="#67AB83" font-family="Source Sans Pro" font-size="24" font-weight="normal"><tspan x="532" y="220">Source</tspan> <tspan x="518" y="251">Streams</tspan></text><text id="a-function-copy" fill="#727481" font-family="Source Sans Pro" font-size="24" font-weight="normal"><tspan x="405" y="384">a function</tspan></text><text id="framework-side" fill="#727481" font-family="Source Sans Pro" font-size="24" font-weight="normal"><tspan x="300" y="220">framework side</tspan></text><g id="human" transform="translate(215.000000, 268.000000)"><rect id="Rectangle-1-Copy" width="318" height="91" x="0" y=".5" fill="#8FE8B4" fill-opacity=".498" stroke="#67AB83" stroke-width="4"/><text id="human()" fill="#67AB83" font-family="Source Sans Pro" font-size="50" font-weight="normal"><tspan x="73" y="61.5">human()</tspan></text></g><g id="Path-3-+-Path-3-Copy-2" stroke="#409B9E" stroke-width="5" transform="translate(116.000000, 73.000000)"><path id="Path-3" d="M85.4911761,0.616605663 C-30.3641007,29.9321689 -25.7845531,214.433805 85.4782532,240.781956"/><path id="Path-3-Copy-2" d="M67.3235408,248.289129 L79.8598711,230.737418 L92.5149271,248.313782" transform="translate(79.919234, 239.525600) rotate(107.000000) translate(-79.919234, -239.525600)"/></g><g id="Path-3-+-Path-3-Copy-3" stroke="#67AB83" stroke-width="5" transform="translate(585.500000, 184.500000) rotate(-180.000000) translate(-585.500000, -184.500000) translate(539.000000, 57.000000)"><path id="Path-3" d="M85.4911761,0.616605663 C-30.3641007,29.9321689 -25.7845531,214.433805 85.4782532,240.781956"/><path id="Path-3-Copy-2" d="M67.3235408,248.289129 L79.8598711,230.737418 L92.5149271,248.313782" transform="translate(79.919234, 239.525600) rotate(107.000000) translate(-79.919234, -239.525600)"/></g></g></g></svg>