<svg xmlns="http://www.w3.org/2000/svg" xmlns:xlink="http://www.w3.org/1999/xlink" width="750" height="563" version="1.1" viewBox="0 0 750 563"><title>main-domdriver-side-effects</title><desc>Created with Sketch.</desc><g id="Page-1" fill="none" fill-rule="evenodd" stroke="none" stroke-width="1"><g id="main-domdriver-side-effects"><path id="Line" stroke="#727481" stroke-linecap="square" stroke-width="3" d="M88.5,193.5 L758.5,193.5"/><g id="main" transform="translate(215.000000, 27.000000)"><rect id="Rectangle-1" width="318" height="91" x="0" y="0" fill="#58D3D8" fill-opacity=".495" stroke="#409B9E" stroke-width="4"/><text id="main()" fill="#409B9E" font-family="Source Sans Pro" font-size="50" font-weight="normal"><tspan x="92" y="59.95">main()</tspan></text></g><text id="app-side" fill="#727481" font-family="Source Sans Pro" font-size="24" font-weight="normal"><tspan x="332" y="180">app side</tspan></text><text id="VDOM-to-DOM" fill="#727481" font-family="Source Sans Pro" font-size="24" font-weight="normal"><tspan x="109" y="433">VDOM to DOM</tspan></text><text id="WRITE" fill="#727481" font-family="Source Sans Pro" font-size="36" font-weight="bold"><tspan x="147" y="400">WRITE</tspan></text><text id="DOM-events" fill="#727481" font-family="Source Sans Pro" font-size="24" font-weight="normal"><tspan x="509" y="433">DOM events</tspan></text><text id="READ" fill="#727481" font-family="Source Sans Pro" font-size="36" font-weight="bold"><tspan x="509" y="400">READ</tspan></text><text id="Cycle.js" fill="#727481" font-family="Merriweather" font-size="20" font-weight="bold"><tspan x="2" y="199">Cycle.js</tspan></text><text id="Sink-Observables" fill="#727481" font-family="Source Sans Pro" font-size="24" font-weight="normal"><tspan x="146" y="149">Sink</tspan> <tspan x="146" y="180">Streams</tspan></text><text id="Source-Observables" fill="#727481" font-family="Source Sans Pro" font-size="24" font-weight="normal"><tspan x="532" y="220">Source</tspan> <tspan x="518" y="251">Streams</tspan></text><text id="framework-side" fill="#727481" font-family="Source Sans Pro" font-size="24" font-weight="normal"><tspan x="300" y="220">framework side</tspan></text><g id="domDriver" transform="translate(215.000000, 268.000000)"><rect id="Rectangle-1-Copy" width="318" height="91" x="0" y=".5" fill="#8FE8B4" fill-opacity=".498" stroke="#67AB83" stroke-width="4"/><text id="domDriver()" fill="#67AB83" font-family="Source Sans Pro" font-size="50" font-weight="normal"><tspan x="33.5" y="62.45">domDriver()</tspan></text></g><g id="DOM" transform="translate(215.000000, 458.000000)"><rect id="Rectangle-1-Copy" width="318" height="91" x="0" y=".5" stroke="#727481" stroke-width="4"/><text fill="#727481" font-family="Source Sans Pro" font-size="48" font-weight="normal"><tspan x="110.856" y="60.952">DOM</tspan></text></g><g id="arrow-circle-main-to-dom" stroke="#409B9E" stroke-width="5" transform="translate(116.000000, 73.000000)"><path id="Path-3" d="M85.4911761,0.616605663 C-30.3641007,29.9321689 -25.7845531,214.433805 85.4782532,240.781956"/><path id="Path-3-Copy-2" d="M67.3235408,248.289129 L79.8598711,230.737418 L92.5149271,248.313782" transform="translate(79.919234, 239.525600) rotate(107.000000) translate(-79.919234, -239.525600)"/></g><g id="arrow-circle-dom-to-main" stroke="#67AB83" stroke-width="5" transform="translate(585.500000, 184.500000) rotate(-180.000000) translate(-585.500000, -184.500000) translate(539.000000, 57.000000)"><path id="Path-3" d="M85.4911761,0.616605663 C-30.3641007,29.9321689 -25.7845531,214.433805 85.4782532,240.781956"/><path id="Path-3-Copy-2" d="M67.3235408,248.289129 L79.8598711,230.737418 L92.5149271,248.313782" transform="translate(79.919234, 239.525600) rotate(107.000000) translate(-79.919234, -239.525600)"/></g><g id="arrow-write-DOM" fill="#727481" transform="translate(271.000000, 366.000000)"><rect id="Rectangle-13" width="33" height="55" x="14" y="0"/><path id="Triangle-1" d="M0,51 L61,51 L30.5,86 L0,51 Z"/></g><g id="arrow-write-DOM-Copy" fill="#727481" transform="translate(451.500000, 409.000000) rotate(-180.000000) translate(-451.500000, -409.000000) translate(421.000000, 366.000000)"><rect id="Rectangle-13" width="33" height="55" x="14" y="0"/><path id="Triangle-1" d="M5.68434189e-14,51 L61,51 L30.5,86 L5.68434189e-14,51 Z"/></g></g></g></svg>