<svg xmlns="http://www.w3.org/2000/svg" xmlns:xlink="http://www.w3.org/1999/xlink" width="749" height="339" version="1.1" viewBox="0 0 749 339"><title>main-eq-mvi</title><desc>Created with Sketch.</desc><g id="main-eq-mvi" fill="none" fill-rule="evenodd" stroke="none" stroke-width="1"><g><path id="Path-7" fill="#F5F5F5" stroke="#727481" stroke-width="2" d="M117.439656,22.1608562 L143.565028,68.2603895 L117.439656,111.263051 L618.232924,111.263051 L649.027724,67.5798751 L618.330146,22.1608562 L117.439656,22.1608562 Z"/><path id="Path-7-Copy" fill="#F5F5F5" stroke="#727481" stroke-width="2" d="M117.439656,225.160856 L143.565028,271.26039 L117.439656,314.263051 L618.232924,314.263051 L649.027724,270.579875 L618.330146,225.160856 L117.439656,225.160856 Z"/><text id="main" fill="#727481" font-family="Source Sans Pro" font-size="36" font-weight="normal"><tspan x="344" y="78">main</tspan></text><text id="equivalent-to…" fill="#727481" font-family="Source Sans Pro" font-size="36" font-weight="normal"><tspan x="277" y="181">equivalent to…</tspan></text><text id="DOM-source" fill="#67AB83" font-family="Source Sans Pro" font-size="24" font-weight="normal"><tspan x="44.928" y="60">DOM</tspan> <tspan x="35.268" y="91">source</tspan></text><text id="DOM-sink" fill="#409B9E" font-family="Source Sans Pro" font-size="24" font-weight="normal"><tspan x="672.928" y="60">DOM</tspan> <tspan x="675.84" y="91">sink</tspan></text><text id="DOM-source-Copy" fill="#67AB83" font-family="Source Sans Pro" font-size="24" font-weight="normal"><tspan x="44.928" y="260">DOM</tspan> <tspan x="35.268" y="291">source</tspan></text><text id="DOM-sink-Copy" fill="#409B9E" font-family="Source Sans Pro" font-size="24" font-weight="normal"><tspan x="672.928" y="260">DOM</tspan> <tspan x="675.84" y="291">sink</tspan></text><text id="intent" fill="#727481" font-family="Source Sans Pro" font-size="36" font-weight="normal"><tspan x="177" y="280">intent</tspan></text><text id="model" fill="#727481" font-family="Source Sans Pro" font-size="36" font-weight="normal"><tspan x="333" y="280">model</tspan></text><text id="view" fill="#727481" font-family="Source Sans Pro" font-size="36" font-weight="normal"><tspan x="506" y="280">view</tspan></text><path id="Line" stroke="#727481" stroke-linecap="square" stroke-width="2" d="M489,225 L436,314"/><path id="Line-Copy" stroke="#727481" stroke-linecap="square" stroke-width="2" d="M328,225 L275,314"/></g></g></svg>