<svg xmlns="http://www.w3.org/2000/svg" xmlns:xlink="http://www.w3.org/1999/xlink" width="368" height="338" version="1.1" viewBox="0 0 368 338"><title>mvc-diagram</title><desc>Created with Sketch.</desc><g id="MVC" fill="none" fill-rule="evenodd" stroke="none" stroke-width="1"><g id="mvc-diagram"><text id="Updates" fill="#727481" font-family="Source Sans Pro" font-size="18" font-weight="normal"><tspan x="20.91" y="76" fill="#727481">Updates</tspan></text><text id="Manipulates" fill="#727481" font-family="Source Sans Pro" font-size="18" font-weight="normal"><tspan x="271.731" y="76" fill="#727481">Manipulates</tspan></text><text id="Manipulates" fill="#727481" font-family="Source Sans Pro" font-size="18" font-weight="normal"><tspan x="129.731" y="145" fill="#727481">Manipulates</tspan></text><text id="Sees" fill="#727481" font-family="Source Sans Pro" font-size="18" font-weight="normal"><tspan x="44.495" y="236" fill="#727481">Sees</tspan></text><text id="Uses" fill="#727481" font-family="Source Sans Pro" font-size="18" font-weight="normal"><tspan x="273.225" y="236" fill="#727481">Uses</tspan></text><g id="Rectangle-1-+-Model" transform="translate(136.000000, 5.000000)"><rect id="Rectangle-1" width="81" height="54" x="0" y="0" fill="#F5F5F5" stroke="#24242D"/><text id="Model" fill="#323232" font-family="Source Sans Pro" font-size="18" font-weight="normal"><tspan x="17.325" y="33.482">Model</tspan></text></g><g id="Rectangle-2-+-View" transform="translate(5.000000, 126.000000)"><rect id="Rectangle-2" width="81" height="54" x="0" y="0" fill="#F5F5F5" stroke="#24242D"/><text id="View" fill="#323232" font-family="Source Sans Pro" font-size="18" font-weight="normal"><tspan x="22.707" y="33.128">View</tspan></text></g><g id="Rectangle-3-+-Controller" transform="translate(262.000000, 126.000000)"><rect id="Rectangle-3" width="97.953" height="54" x="0" y="0" fill="#F5F5F5" stroke="#24242D"/><text id="Controller" fill="#24242D" font-family="Source Sans Pro" font-size="18" font-weight="normal"><tspan x="10.907" y="33.482">Controller</tspan></text></g><g id="User-+-Oval-1" transform="translate(136.000000, 253.000000)"><circle id="Oval-1" cx="40.5" cy="40.5" r="40.5" fill="#F5F5F5" stroke="#24242D"/><text id="User" fill="#323232" font-family="Source Sans Pro" font-size="18" font-weight="normal"><tspan x="23" y="48.982">User</tspan></text></g><path id="Line" fill="#727481" stroke="#727481" stroke-linecap="square" d="M135.551086,36.4489096 L47.4444635,124.555534"/><path id="Line-decoration-1" fill="#727481" stroke="#727481" stroke-linecap="square" d="M47.4444635,124.555534 L57.202537,119.040101 L52.9598963,114.797461 L47.4444635,124.555534 Z"/><path id="Line-4" fill="#727481" stroke="#727481" stroke-linecap="square" d="M312.069183,126.069183 L218.494657,32.4946565"/><path id="Line-4-decoration-1" fill="#727481" stroke="#727481" stroke-linecap="square" d="M218.494657,32.4946565 L224.010089,42.2527301 L228.25273,38.0100894 L218.494657,32.4946565 Z"/><path id="Line-5" fill="#727481" stroke="#727481" stroke-linecap="square" d="M261.5,155.5 L86.5,155.5"/><path id="Line-5-decoration-1" fill="#727481" stroke="#727481" stroke-linecap="square" d="M86.5,155.5 L97.3,158.5 L97.3,152.5 L86.5,155.5 Z"/><path id="Line-2" fill="#727481" stroke="#727481" stroke-linecap="square" d="M44.9879687,180.987969 L138.5,274.5"/><path id="Line-2-decoration-1" fill="#727481" stroke="#727481" stroke-linecap="square" d="M138.5,274.5 L132.984567,264.741926 L128.741926,268.984567 L138.5,274.5 Z"/><path id="Line-3" fill="#727481" stroke="#727481" stroke-linecap="square" d="M213.5,273.5 L306.00135,180.998649"/><path id="Line-3-decoration-1" fill="#727481" stroke="#727481" stroke-linecap="square" d="M306.00135,180.998649 L296.243277,186.514082 L300.485918,190.756722 L306.00135,180.998649 Z"/></g></g></svg>