<svg xmlns="http://www.w3.org/2000/svg" xmlns:xlink="http://www.w3.org/1999/xlink" version="1.1" viewBox="0 0 209 507"><title>Group</title><desc>Created with Sketch.</desc><g id="human-computer" fill="none" fill-rule="evenodd" stroke="none" stroke-width="1"><g id="Group" transform="translate(-45.000000, -15.000000)"><circle id="Oval-1" cx="146" cy="419" r="38" fill="#A5FF51" stroke="#9AC572" stroke-width="10"/><circle id="Oval-2" cx="146" cy="140" r="38" fill="#DDD" stroke="#B9B9B9" stroke-width="10"/><text id="Human" fill="#7DA25A" font-family="Source Sans Pro" font-size="50" font-weight="normal"><tspan x="68.4" y="521">Human</tspan></text><text id="Computer" fill="#747474" font-family="Source Sans Pro" font-size="50" font-weight="normal"><tspan x="43.7" y="49">Computer</tspan></text><g id="Path-15-+-Path-2" stroke="#979797" transform="translate(98.500000, 282.000000) scale(1, -1) translate(-98.500000, -282.000000) translate(75.000000, 183.000000)"><path id="Path-15" stroke-width="7" d="M37.3775229,1.50509088 L16.9737944,18.4291738 L37.3775229,34.2764494" transform="translate(27.175659, 17.890770) rotate(125.000000) translate(-27.175659, -17.890770)"/><path id="Path-2" stroke-width="9" d="M26.9129005,197.154998 C26.9129005,197.154998 -34.8157014,98.8736491 31,12.3678484"/></g><g id="Path-15-+-Path-3" stroke="#9BC672" transform="translate(194.500000, 279.000000) scale(-1, 1) translate(-194.500000, -279.000000) translate(171.000000, 180.000000)"><path id="Path-15" stroke-width="7" d="M37.3775229,1.50509088 L16.9737944,18.4291738 L37.3775229,34.2764494" transform="translate(27.175659, 17.890770) rotate(125.000000) translate(-27.175659, -17.890770)"/><path id="Path-2" stroke-width="9" d="M26.9129005,197.154998 C26.9129005,197.154998 -34.8157014,98.8736491 31,12.3678484"/></g></g></g></svg>